<?xml version="1.0" standalone="no"?>
<!DOCTYPE svg PUBLIC "-//W3C//DTD SVG 20010904//EN"
 "http://www.w3.org/TR/2001/REC-SVG-20010904/DTD/svg10.dtd">
<svg version="1.0" xmlns="http://www.w3.org/2000/svg"
 width="2653.000000pt" height="2653.000000pt" viewBox="0 0 2653.000000 2653.000000"
 preserveAspectRatio="xMidYMid meet">
<metadata>
Created by potrace 1.11, written by Peter Selinger 2001-2013
</metadata>
<g transform="translate(0.000000,2653.000000) scale(0.100000,-0.100000)"
fill="#000000" stroke="none">
<path d="M14627 23824 c-1 -1 -72 -5 -157 -8 -85 -4 -177 -8 -205 -11 -27 -2
-88 -6 -135 -10 -47 -3 -101 -8 -120 -10 -19 -2 -62 -6 -95 -10 -84 -8 -167
-17 -187 -21 -9 -1 -48 -6 -85 -9 -37 -4 -71 -9 -74 -11 -4 -2 -14 -54 -23
-116 -10 -62 -19 -124 -22 -138 -2 -14 -15 -104 -29 -200 -30 -200 -32 -215
-45 -290 -5 -30 -12 -75 -15 -100 -3 -25 -8 -57 -11 -72 -11 -70 -13 -86 -19
-138 -4 -30 -9 -58 -11 -61 -2 -4 -6 -26 -9 -50 -2 -24 -7 -60 -10 -79 -3 -19
-7 -53 -10 -75 -3 -22 -7 -47 -10 -55 -2 -8 -6 -35 -9 -60 -3 -25 -8 -56 -10
-70 -4 -23 -20 -129 -32 -220 -9 -63 -13 -68 -57 -75 -23 -4 -51 -9 -62 -12
-11 -2 -31 -6 -45 -9 -14 -3 -54 -12 -90 -20 -36 -9 -76 -18 -90 -20 -150 -29
-551 -142 -830 -233 -101 -34 -185 -61 -186 -61 -2 0 -480 587 -664 815 -63
78 -131 162 -152 186 -20 24 -98 121 -173 214 -76 94 -141 174 -146 179 -8 9
-101 -28 -277 -110 -52 -24 -96 -44 -98 -44 -10 0 -442 -218 -559 -282 -193
-105 -238 -130 -277 -154 l-36 -23 35 -138 c19 -76 36 -145 38 -153 2 -8 60
-242 129 -520 68 -278 148 -597 176 -710 28 -113 52 -212 55 -220 3 -9 -10
-24 -33 -40 -102 -68 -281 -194 -402 -284 -149 -112 -139 -104 -231 -178 -36
-29 -80 -64 -98 -78 -18 -14 -38 -30 -44 -36 -7 -5 -50 -43 -97 -83 -47 -40
-103 -90 -125 -110 -74 -66 -71 -65 -107 -43 -31 19 -55 31 -243 132 -101 54
-176 95 -240 130 -52 28 -86 47 -315 170 -74 40 -159 85 -187 101 -189 103
-280 152 -371 200 -40 21 -101 54 -135 73 l-63 36 -105 -108 c-156 -160 -244
-257 -403 -442 -54 -63 -110 -129 -125 -145 -30 -35 -154 -190 -228 -286 l-51
-65 70 -95 c38 -52 76 -105 86 -119 9 -14 19 -27 22 -30 3 -3 79 -104 168
-225 89 -121 201 -274 250 -340 49 -66 173 -235 277 -375 103 -140 189 -257
191 -259 3 -3 2548 -5 2695 -2 24 1 45 10 66 29 152 138 277 247 330 289 20
15 50 40 67 54 56 47 210 164 261 199 28 18 52 37 55 40 13 18 356 239 522
338 331 196 811 421 1183 554 208 74 524 171 635 194 14 2 39 9 55 14 28 9
237 56 295 66 14 3 57 11 95 19 39 7 90 17 115 20 64 9 109 16 134 21 11 2 41
6 66 9 25 3 56 8 70 10 14 3 52 7 85 10 33 3 74 7 90 10 17 2 66 7 110 10 44
3 96 8 115 10 186 21 815 22 1025 1 22 -3 76 -7 120 -11 44 -3 91 -8 105 -10
14 -2 54 -7 90 -10 36 -3 76 -8 90 -10 27 -5 46 -8 165 -25 44 -7 87 -14 97
-15 9 -2 38 -7 65 -11 26 -5 50 -8 53 -9 3 -1 19 -4 35 -8 17 -4 41 -9 55 -11
451 -82 1033 -270 1540 -498 81 -37 414 -205 480 -243 36 -21 85 -49 110 -63
81 -45 193 -114 283 -174 49 -32 92 -58 97 -58 5 0 10 -3 12 -7 4 -11 97 -73
107 -73 5 0 11 -3 13 -8 2 -4 60 -49 130 -100 70 -51 145 -107 167 -125 21
-18 68 -54 103 -82 34 -27 76 -62 93 -76 239 -208 285 -251 459 -425 478 -476
881 -1015 1208 -1614 43 -79 208 -407 208 -414 0 -3 13 -33 29 -68 37 -81 53
-118 85 -198 15 -36 31 -74 35 -85 5 -11 19 -47 31 -80 12 -33 26 -69 31 -80
19 -44 102 -299 146 -445 72 -246 125 -470 172 -730 12 -63 23 -124 25 -135 2
-11 7 -45 11 -75 4 -30 9 -62 10 -70 2 -13 6 -39 20 -160 4 -29 12 -111 20
-190 6 -57 14 -187 20 -300 5 -91 5 -582 0 -655 -2 -33 -6 -105 -10 -160 -3
-55 -8 -118 -10 -140 -8 -86 -17 -171 -20 -185 -2 -8 -6 -49 -10 -90 -4 -41
-8 -77 -10 -80 -2 -3 -6 -30 -10 -60 -3 -30 -8 -62 -10 -70 -2 -8 -7 -35 -10
-60 -3 -25 -8 -52 -10 -60 -2 -8 -7 -31 -10 -50 -3 -19 -10 -57 -15 -85 -6
-27 -12 -59 -14 -70 -14 -74 -93 -397 -118 -480 -39 -134 -88 -295 -98 -320
-4 -11 -27 -74 -50 -140 -24 -66 -48 -133 -55 -150 -7 -16 -22 -57 -35 -90
-50 -130 -178 -411 -270 -590 -88 -172 -80 -158 -160 -293 -33 -56 -60 -104
-60 -107 0 -7 -164 -261 -238 -370 -67 -98 -238 -332 -252 -345 -3 -3 -21 -25
-40 -50 -19 -25 -48 -61 -65 -81 -16 -20 -44 -53 -62 -75 -18 -21 -45 -53 -60
-71 -15 -17 -59 -67 -98 -111 -172 -196 -571 -576 -785 -747 -41 -33 -77 -63
-80 -66 -14 -17 -333 -248 -450 -326 -291 -194 -488 -308 -810 -468 -434 -216
-865 -376 -1365 -505 -82 -21 -161 -41 -175 -44 -14 -2 -70 -14 -125 -26 -97
-21 -144 -30 -270 -51 -61 -10 -75 -12 -155 -24 -77 -11 -94 -14 -145 -20 -27
-3 -65 -7 -83 -10 -18 -2 -67 -7 -110 -10 -42 -4 -95 -9 -117 -11 -246 -25
-899 -25 -1145 1 -19 2 -66 6 -105 10 -87 8 -152 15 -185 20 -14 2 -52 7 -85
11 -33 3 -62 8 -65 9 -3 2 -29 6 -59 10 -30 4 -63 9 -75 11 -12 2 -73 13 -136
24 -63 11 -122 22 -130 25 -8 2 -27 7 -42 10 -16 3 -40 7 -55 11 -218 43 -752
200 -930 272 -26 11 -111 45 -188 75 -77 31 -170 70 -207 86 l-68 31 -2003 0
-2003 0 -149 -277 c-83 -152 -168 -311 -190 -352 -57 -107 -135 -250 -156
-288 -68 -121 -199 -371 -199 -379 0 -5 57 -64 127 -129 69 -66 133 -127 142
-136 14 -13 80 -72 251 -223 52 -46 308 -257 360 -297 25 -19 47 -37 50 -40
16 -21 104 -80 114 -77 7 2 178 126 382 275 688 508 1001 739 1034 765 l33 26
41 -25 c23 -15 80 -52 128 -84 224 -149 633 -382 899 -512 l148 -72 -5 -45
c-2 -25 -6 -58 -8 -75 -3 -16 -7 -68 -11 -113 -4 -46 -8 -92 -10 -101 -2 -10
-6 -49 -10 -87 -3 -38 -8 -85 -10 -104 -7 -72 -15 -146 -20 -195 -3 -27 -7
-68 -10 -90 -2 -22 -7 -71 -10 -110 -4 -38 -8 -81 -10 -95 -2 -14 -7 -56 -10
-95 -3 -38 -8 -81 -10 -95 -2 -14 -7 -52 -10 -85 -5 -60 -11 -119 -20 -205 -2
-25 -9 -92 -15 -150 -6 -58 -13 -117 -15 -131 -3 -31 -21 -22 260 -129 296
-112 604 -213 915 -300 122 -34 136 -36 146 -21 6 9 52 84 101 166 50 83 209
346 353 585 145 239 271 449 280 465 9 17 30 51 46 77 16 26 55 90 87 143 32
52 64 95 72 95 7 0 45 -7 84 -15 83 -17 91 -19 247 -44 175 -29 285 -45 384
-56 30 -3 71 -8 90 -10 43 -6 124 -14 207 -20 35 -3 84 -7 110 -10 27 -2 93
-7 147 -10 55 -3 101 -6 103 -8 3 -3 97 -313 113 -372 4 -16 45 -151 90 -300
45 -148 86 -286 91 -305 5 -19 58 -197 117 -395 l107 -360 85 1 c139 2 483 14
510 18 14 3 75 7 135 10 61 4 121 8 135 10 14 3 61 7 105 11 44 3 94 7 110 9
17 2 57 7 90 10 137 15 215 29 216 40 0 6 2 20 4 31 2 11 6 34 9 50 3 17 8 50
11 75 3 25 7 56 10 70 3 14 7 39 9 55 2 17 9 62 15 100 6 39 13 88 16 110 3
22 10 65 15 95 5 30 12 78 16 105 3 28 7 57 9 65 3 17 15 93 20 130 9 59 46
307 50 330 2 14 7 48 11 75 3 28 7 57 9 65 1 8 6 35 10 60 3 25 9 59 11 75 3
17 7 46 10 65 2 19 9 60 14 90 5 30 11 70 13 88 2 17 6 35 9 38 6 6 110 29
223 49 50 9 546 135 556 141 5 3 17 7 26 9 38 8 359 108 436 135 91 34 103 35
121 18 11 -12 99 -121 371 -458 61 -75 127 -156 147 -181 39 -47 189 -231 316
-389 42 -52 81 -100 87 -106 5 -6 54 -66 108 -132 l97 -121 36 15 c20 8 44 19
53 24 9 4 75 34 146 66 143 62 498 236 640 313 314 168 367 200 361 220 -8 25
-176 701 -185 746 -5 22 -41 168 -81 325 -39 157 -76 303 -80 325 -5 22 -25
103 -45 180 -19 77 -35 147 -35 155 1 8 31 35 68 60 151 100 404 283 522 377
183 145 407 334 482 405 24 23 31 23 86 -8 26 -15 81 -45 122 -67 41 -22 89
-47 105 -57 17 -10 64 -35 105 -57 41 -22 131 -71 200 -108 69 -37 159 -86
200 -108 41 -22 89 -47 105 -57 17 -9 71 -39 120 -65 103 -55 309 -166 405
-219 36 -20 89 -48 118 -63 l54 -28 96 100 c90 93 153 161 257 276 37 40 204
233 265 305 33 40 218 269 259 322 l33 42 -76 103 c-41 56 -79 107 -84 112 -4
6 -74 100 -155 210 -81 110 -284 386 -452 614 -168 228 -304 419 -302 426 3 6
37 59 76 117 183 275 360 584 528 920 l84 167 57 -4 c31 -3 71 -7 87 -9 17 -3
62 -7 100 -11 39 -3 84 -8 100 -10 17 -2 57 -6 90 -10 33 -3 78 -8 100 -10 22
-3 67 -7 100 -10 33 -3 76 -7 95 -10 19 -3 62 -7 95 -10 58 -5 81 -7 195 -20
59 -7 98 -11 200 -20 36 -4 76 -8 90 -10 14 -2 59 -6 100 -10 41 -4 86 -8 100
-10 14 -2 48 -6 75 -9 28 -3 79 -8 115 -12 65 -7 100 -8 105 -2 7 9 161 412
169 443 2 6 6 17 9 25 19 42 162 491 192 600 19 69 39 141 45 160 24 88 63 54
-345 300 -23 14 -82 49 -131 78 -49 29 -219 132 -379 229 -159 96 -308 185
-330 198 -22 13 -96 57 -163 99 -68 42 -127 76 -130 76 -19 1 -53 41 -48 57 3
10 8 32 10 48 5 27 19 99 30 150 2 11 7 40 11 65 4 25 8 52 10 60 1 8 6 37 9
63 4 27 9 56 11 65 1 10 6 40 9 67 4 28 9 61 11 75 5 31 14 110 21 175 3 28 7
61 9 74 2 12 7 60 10 105 4 44 8 91 10 104 2 13 7 85 10 160 4 83 11 141 18
148 11 9 160 59 210 69 10 2 55 15 100 29 45 14 134 41 197 60 226 67 296 88
375 111 44 14 211 63 370 111 160 47 331 98 380 113 l90 28 -1 164 c-1 152
-10 387 -19 504 -3 28 -7 84 -10 125 -5 76 -13 171 -19 225 -2 17 -7 64 -11
105 -4 41 -9 82 -10 90 -2 8 -6 44 -10 80 -8 75 -16 93 -41 96 -40 4 -120 15
-139 19 -11 2 -67 11 -125 20 -58 8 -116 17 -130 19 -14 3 -41 7 -60 10 -49 7
-579 86 -610 91 -71 11 -159 25 -195 30 -22 3 -80 12 -130 20 -49 8 -110 17
-135 20 -54 7 -109 16 -130 20 -8 2 -29 4 -46 4 -40 1 -63 20 -70 56 -51 290
-168 735 -290 1108 l-65 197 28 24 c15 13 90 74 166 135 164 133 297 241 352
286 31 26 185 150 305 248 8 7 123 100 255 207 132 107 253 206 268 220 l28
26 -36 84 c-125 292 -336 716 -520 1042 -50 88 -63 106 -80 103 -11 -3 -123
-30 -250 -61 -126 -31 -237 -57 -245 -59 -8 -2 -62 -16 -120 -30 -58 -15 -112
-28 -120 -30 -8 -2 -98 -24 -200 -50 -102 -26 -192 -48 -200 -50 -8 -2 -61
-15 -116 -29 -56 -14 -110 -27 -120 -29 -11 -1 -25 -6 -31 -10 -7 -5 -13 -6
-13 -3 0 3 -11 1 -26 -4 -14 -6 -37 -12 -52 -15 -39 -7 -57 -11 -152 -34 -47
-12 -88 -21 -92 -21 -4 0 -50 64 -104 143 -174 255 -396 543 -593 772 -52 61
-98 112 -101 115 -3 3 -18 20 -34 37 l-28 31 45 84 c24 46 58 108 75 138 49
91 355 658 407 755 26 50 56 104 65 120 10 17 37 66 60 110 23 44 59 109 78
145 20 36 57 105 83 154 l47 90 -63 60 c-147 143 -265 251 -390 361 -44 38
-82 72 -85 76 -12 14 -321 266 -426 347 l-82 63 -213 -157 c-118 -87 -254
-187 -304 -224 -81 -60 -260 -192 -325 -240 -144 -106 -327 -241 -335 -247 -5
-5 -70 -52 -142 -105 -123 -90 -135 -97 -158 -86 -14 6 -25 15 -25 20 0 4 -5
8 -10 8 -6 0 -39 19 -73 42 -119 81 -143 96 -304 192 -221 131 -384 220 -600
329 -170 86 -182 94 -179 117 4 25 11 82 21 190 3 30 8 71 10 90 2 19 7 64 11
100 3 36 7 76 9 90 1 14 6 59 9 100 4 41 9 86 11 100 2 14 7 59 10 100 3 41 8
86 10 100 2 14 6 52 9 85 4 33 8 78 11 100 2 22 7 67 10 100 4 33 8 74 10 90
2 17 7 62 10 100 3 39 8 84 10 100 6 42 16 142 20 190 2 22 6 63 10 91 6 50 5
51 -27 61 -18 6 -127 47 -243 91 -115 44 -293 108 -395 141 -171 58 -619 191
-639 191 -5 0 -20 -19 -33 -42 -14 -24 -85 -142 -158 -263 -73 -121 -140 -232
-149 -247 -63 -107 -585 -969 -594 -981 -11 -14 -20 -14 -77 -1 -36 7 -81 16
-100 19 -20 3 -47 8 -60 10 -22 5 -81 14 -185 31 -16 2 -41 6 -55 9 -14 2 -45
7 -70 10 -25 2 -55 7 -67 9 -12 3 -50 7 -85 11 -35 3 -74 8 -88 10 -14 2 -51
6 -82 9 -32 3 -82 8 -110 11 -63 7 -116 11 -263 21 -60 3 -117 8 -125 10 -8 1
-18 3 -22 3 -4 1 -14 27 -23 59 -9 31 -29 100 -45 152 -57 190 -89 298 -130
435 -23 77 -55 184 -71 237 -17 53 -32 105 -34 115 -4 19 -95 323 -144 483
-17 52 -40 130 -52 173 l-22 78 -159 -3 c-88 -2 -160 -3 -161 -4z"/>
<path d="M4327 18784 c-1 -1 -63 -4 -137 -8 -74 -3 -146 -8 -160 -10 -14 -2
-52 -7 -85 -11 -92 -10 -126 -15 -180 -26 -27 -5 -66 -12 -85 -15 -121 -19
-423 -100 -581 -157 -560 -202 -1055 -517 -1474 -941 -66 -66 -143 -148 -170
-180 -28 -32 -54 -64 -60 -70 -101 -111 -303 -403 -402 -581 -44 -78 -174
-343 -206 -420 -106 -251 -212 -623 -252 -885 -4 -25 -8 -52 -10 -60 -2 -8 -6
-44 -10 -80 -4 -36 -9 -76 -11 -90 -17 -103 -23 -460 -11 -661 6 -99 28 -299
41 -364 5 -29 19 -108 21 -125 12 -83 74 -323 124 -475 120 -370 304 -735 536
-1060 64 -91 163 -218 210 -272 178 -202 395 -409 590 -561 137 -107 342 -241
510 -334 66 -37 339 -170 355 -173 3 -1 16 -6 30 -12 207 -92 540 -190 805
-238 30 -6 205 -32 260 -39 187 -26 744 -26 873 -1 12 2 46 6 77 10 30 3 76 9
100 14 47 9 65 0 47 -22 -6 -7 -45 -73 -87 -147 -42 -74 -80 -139 -84 -145 -5
-5 -22 -35 -38 -65 -17 -30 -43 -76 -57 -102 l-27 -47 74 -128 c41 -70 84
-144 94 -163 34 -59 83 -144 93 -160 10 -16 67 -115 121 -210 17 -30 53 -92
80 -138 27 -45 49 -87 49 -92 0 -6 5 -10 10 -10 6 0 10 -4 10 -10 0 -5 27 -55
60 -111 33 -55 60 -102 60 -104 0 -2 27 -49 60 -105 33 -56 60 -104 60 -107 0
-2 14 -24 30 -48 16 -24 30 -46 30 -49 0 -3 39 -71 86 -153 47 -81 96 -166
109 -188 12 -22 100 -175 195 -340 95 -165 184 -320 198 -345 14 -25 109 -189
212 -365 102 -176 228 -393 280 -483 l94 -162 2004 2 2004 3 55 95 c31 52 67
115 81 140 14 25 35 61 47 80 12 19 25 42 28 50 4 8 17 31 29 50 12 19 31 53
43 75 13 22 89 155 170 295 255 440 646 1116 704 1218 48 84 42 73 161 279 58
100 108 179 112 175 5 -6 167 -284 247 -425 10 -17 32 -56 50 -85 17 -29 31
-57 31 -62 0 -6 5 -10 10 -10 6 0 10 -4 10 -10 0 -8 136 -248 362 -640 l49
-85 2440 0 2440 1 67 114 c38 63 71 122 75 130 4 8 15 29 26 45 10 17 104 179
208 360 105 182 200 346 211 365 12 19 27 46 35 60 7 14 48 84 90 157 42 72
86 149 98 170 12 21 25 43 29 48 4 6 19 30 32 55 14 25 34 61 45 80 11 19 45
78 75 130 74 129 219 379 413 715 89 154 206 357 260 450 54 94 172 298 263
455 91 157 172 299 182 315 9 17 41 72 71 123 30 52 70 122 89 157 19 35 41
70 48 77 6 6 12 15 12 19 0 4 25 49 55 100 30 52 55 97 55 100 0 4 -44 82 -98
175 -54 93 -101 176 -105 184 -4 8 -15 29 -26 45 -16 27 -430 742 -487 843
-64 111 -535 929 -543 942 -10 16 -158 271 -177 305 -6 11 -53 92 -104 180
-51 88 -101 174 -110 190 -9 17 -50 87 -90 155 -40 69 -82 141 -92 160 -20 35
-74 130 -93 162 -43 74 -216 372 -238 411 -15 27 -53 93 -84 146 -30 53 -66
114 -78 136 -13 22 -43 74 -67 115 l-45 75 -2439 3 c-2315 2 -2440 1 -2450
-15 -6 -10 -22 -38 -36 -63 -25 -44 -222 -386 -416 -720 -115 -199 -158 -274
-184 -320 -11 -19 -73 -125 -136 -235 -111 -192 -304 -525 -494 -855 -49 -85
-93 -162 -99 -170 -8 -14 -225 -390 -280 -487 -144 -252 -204 -353 -208 -353
-6 0 -18 19 -69 110 -14 25 -34 59 -44 75 -10 17 -23 41 -30 55 -7 14 -34 60
-60 103 -27 43 -48 80 -48 82 0 3 -69 124 -77 134 -2 3 -576 5 -1276 5 -842 1
-1271 4 -1270 11 0 6 10 53 21 105 11 52 23 111 26 130 3 19 10 58 15 86 5 27
13 84 17 125 3 40 8 76 9 79 8 13 19 252 19 400 0 155 -9 353 -18 410 -3 14
-7 50 -10 80 -4 46 -25 182 -41 265 -120 626 -394 1216 -799 1720 -110 137
-123 151 -276 305 -157 157 -190 188 -325 296 -318 255 -652 448 -1030 597
-115 45 -326 116 -394 133 -140 34 -324 75 -351 78 -19 2 -46 7 -60 10 -14 3
-47 8 -75 11 -27 3 -63 8 -80 10 -131 17 -288 27 -438 29 -71 0 -129 1 -130 0z"/>
<path d="M12955 18754 c-128 -28 -237 -86 -322 -172 -182 -182 -242 -444 -158
-677 84 -229 283 -391 523 -423 369 -50 702 221 729 593 6 83 -11 219 -29 243
-6 6 -8 12 -5 12 8 0 -21 63 -60 130 -36 62 -126 155 -193 200 -135 90 -330
127 -485 94z"/>
<path d="M15875 18723 c-117 -19 -179 -43 -245 -92 -283 -211 -250 -643 61
-810 94 -51 218 -69 329 -47 114 22 255 126 314 232 173 309 -34 694 -384 717
-30 2 -64 2 -75 0z"/>
<path d="M10766 17548 c-139 -13 -234 -35 -346 -81 -305 -125 -535 -352 -659
-651 -18 -43 -34 -86 -36 -95 -2 -9 -11 -40 -19 -70 -24 -86 -30 -147 -31
-286 0 -156 10 -227 55 -380 23 -77 109 -242 168 -321 200 -270 481 -438 807
-482 64 -8 254 -8 323 1 167 21 379 106 527 212 86 61 203 178 267 265 199
274 269 601 203 955 -7 35 -42 148 -61 195 -191 474 -693 784 -1198 738z"/>
</g>
</svg>
