<?xml version="1.0" encoding="UTF-8" standalone="no"?>
<!-- Created with Inkscape (http://www.inkscape.org/) -->

<svg
   xmlns:dc="http://purl.org/dc/elements/1.1/"
   xmlns:cc="http://creativecommons.org/ns#"
   xmlns:rdf="http://www.w3.org/1999/02/22-rdf-syntax-ns#"
   xmlns:svg="http://www.w3.org/2000/svg"
   xmlns="http://www.w3.org/2000/svg"
   xmlns:sodipodi="http://sodipodi.sourceforge.net/DTD/sodipodi-0.dtd"
   xmlns:inkscape="http://www.inkscape.org/namespaces/inkscape"
   width="85mm"
   height="85mm"
   viewBox="0 0 85 85"
   version="1.1"
   id="svg181"
   inkscape:version="0.92.3 (2405546, 2018-03-11)"
   sodipodi:docname="herd.svg">
  <defs
     id="defs175" />
  <sodipodi:namedview
     id="base"
     pagecolor="#ffffff"
     bordercolor="#666666"
     borderopacity="1.0"
     inkscape:pageopacity="0.0"
     inkscape:pageshadow="2"
     inkscape:zoom="0.98994949"
     inkscape:cx="351.16989"
     inkscape:cy="204.73838"
     inkscape:document-units="mm"
     inkscape:current-layer="layer1"
     showgrid="false"
     fit-margin-top="0"
     fit-margin-left="0"
     fit-margin-right="0"
     fit-margin-bottom="0"
     inkscape:window-width="2560"
     inkscape:window-height="1377"
     inkscape:window-x="1912"
     inkscape:window-y="-8"
     inkscape:window-maximized="1" />
  <metadata
     id="metadata178">
    <rdf:RDF>
      <cc:Work
         rdf:about="">
        <dc:format>image/svg+xml</dc:format>
        <dc:type
           rdf:resource="http://purl.org/dc/dcmitype/StillImage" />
        <dc:title></dc:title>
      </cc:Work>
    </rdf:RDF>
  </metadata>
  <g
     inkscape:label="Layer 1"
     inkscape:groupmode="layer"
     id="layer1"
     transform="translate(-52.217783,-20.71756)">
    <path
       style="fill:#ffffff;stroke:none;stroke-width:0;stroke-linecap:butt;stroke-linejoin:miter;stroke-opacity:1"
       d="m 58.671669,90.852927 17.652393,0.104316 5.744861,-17.339033 h 18.592467 l -5.640416,17.234598 17.025696,-0.104555 13.91004,-40.512555 c -0.0853,0.02626 18.99236,-4.192918 31.1582,-7.520545 12.41013,-3.394433 25.4041,-2.631397 30.74691,-1.589051 5.49053,0.968487 14.32787,4.853311 14.32787,4.853311 0,0 -7.11849,-7.956277 -22.36849,-9.940867 -15.25,-1.984583 -28.61117,1.184813 -39.70934,2.911985 -13.58687,2.114483 -28.16964,2.182997 -28.16964,2.182997 l -6.68495,19.114724 -17.65763,-0.147731 6.185839,-19.293039 c 0,0 -25.31234,-0.175248 -40.257308,-1.839041 -17.294377,-1.925372 -25.391777,-5.966422 -30.777508,-9.01238 -8.69921,-4.919929 -20.3786466,0.732257 -20.3786466,0.732257 0,0 9.7455196,-2.543108 15.8937306,1.206004 7.097496,4.32798 10.379395,10.347494 21.230009,13.516498 11.604731,3.389246 33.694746,3.347709 33.694746,3.347709 z"
       id="path232"
       inkscape:connector-curvature="0"
       sodipodi:nodetypes="cccccccsccssccccsscsscc" />
  </g>
</svg>
