<?xml version="1.0" encoding="UTF-8" standalone="no"?>
<!DOCTYPE svg PUBLIC "-//W3C//DTD SVG 20010904//EN"
              "http://www.w3.org/TR/2001/REC-SVG-20010904/DTD/svg10.dtd">

<svg xmlns="http://www.w3.org/2000/svg"
     width="4.72222in" height="4.72222in"
     viewBox="0 0 425 425">
  <path id="Imported Path"
        fill="#fff" stroke="none" stroke-width="0"
        d="M 269.83,50.17
           C 274.24,50.19 278.68,50.35 278.95,50.62
             279.22,50.89 282.16,51.21 285.51,51.39
             288.86,51.53 291.81,51.80 292.03,51.98
             292.58,52.39 297.42,53.07 299.00,52.98
             299.59,52.93 300.36,53.11 300.68,53.38
             301.00,53.66 302.45,53.97 303.89,54.11
             305.34,54.24 306.75,54.51 306.97,54.70
             307.25,54.92 308.47,55.19 309.69,55.38
             310.96,55.56 312.18,55.87 312.45,56.10
             312.72,56.33 313.94,56.64 315.17,56.78
             316.39,56.96 317.61,57.23 317.84,57.46
             318.11,57.64 319.24,57.96 320.33,58.14
             321.46,58.32 322.59,58.59 322.82,58.77
             323.45,59.22 328.79,61.03 329.56,61.03
             329.88,61.03 330.79,61.35 331.47,61.71
             332.19,62.08 333.14,62.39 333.55,62.39
             333.96,62.39 334.45,62.62 334.59,62.84
             334.73,63.12 335.22,63.30 335.63,63.30
             336.04,63.30 337.62,63.93 339.12,64.66
             340.61,65.38 342.10,66.01 342.42,66.01
             342.74,66.01 344.19,66.65 345.68,67.37
             347.17,68.14 348.58,68.73 348.85,68.73
             350.12,68.73 371.35,79.78 376.24,82.99
             376.24,82.99 376.61,83.23 376.61,83.23
             379.65,87.17 382.55,91.22 385.28,95.37
             384.01,94.27 382.06,93.06 377.78,90.46
             365.15,82.85 350.84,75.88 338.21,71.13
             321.42,64.84 308.38,61.53 289.32,58.77
             276.37,56.87 255.23,56.82 246.40,58.72
             245.36,58.95 242.87,59.50 240.88,59.90
             232.18,61.76 218.10,65.52 211.04,67.92
             206.65,69.36 200.72,71.45 199.00,72.13
             198.14,72.49 195.47,73.48 193.11,74.43
             190.76,75.34 187.00,76.88 184.74,77.88
             182.52,78.83 180.08,79.87 179.31,80.18
             176.50,81.32 156.49,91.41 152.14,93.90
             147.71,96.39 137.88,102.23 135.85,103.59
             135.26,103.95 133.81,104.86 132.59,105.58
             129.51,107.44 119.59,114.23 116.51,116.58
             115.11,117.67 113.84,118.53 113.66,118.53
             113.30,118.53 105.33,124.55 98.77,129.85
             95.82,132.20 92.75,134.65 91.98,135.28
             88.67,137.91 77.49,147.68 72.24,152.53
             66.94,157.42 66.58,157.87 66.31,159.77
             65.85,162.67 63.91,166.29 61.37,168.83
             57.75,172.45 55.13,172.45 53.54,168.78
             52.82,167.20 52.27,166.52 51.64,166.52
             50.10,166.52 47.25,167.47 45.48,168.60
             43.13,170.05 42.50,169.96 41.59,168.06
             40.91,166.70 40.64,166.52 39.64,166.74
             37.11,167.38 32.53,170.05 30.90,171.86
             30.18,172.63 30.18,172.85 30.81,174.44
             31.27,175.53 31.54,177.52 31.58,179.92
             31.58,183.77 30.90,185.80 28.46,189.70
             27.78,190.78 27.73,191.33 28.23,195.36
             29.00,201.42 28.91,203.19 27.87,204.86
             27.87,204.86 27.01,206.31 27.01,206.31
             27.01,206.31 22.80,206.27 22.80,206.27
             18.59,206.22 16.19,206.81 13.52,208.53
             11.98,209.48 10.17,213.60 9.90,216.72
             9.67,219.30 9.72,219.53 11.07,221.07
             11.84,221.98 12.48,222.74 12.48,222.84
             12.48,222.88 11.75,225.19 10.85,227.91
             9.94,230.62 9.13,234.20 8.99,235.87
             8.77,238.82 8.77,238.86 10.08,239.54
             12.21,240.67 12.43,241.17 11.98,243.93
             11.44,247.06 12.16,251.40 13.75,254.71
             15.33,257.92 18.82,261.23 22.89,263.40
             24.79,264.35 26.65,265.53 27.06,265.98
             28.14,267.25 28.37,270.01 27.65,273.36
             27.06,276.08 27.10,276.85 27.74,280.01
             28.50,283.82 28.60,286.35 28.10,288.57
             27.69,290.47 28.55,291.11 31.58,290.92
             33.89,290.79 34.03,290.70 34.84,289.07
             35.61,287.48 35.84,287.35 37.11,287.53
             37.88,287.62 40.00,288.25 41.77,288.93
             43.58,289.57 45.75,290.11 46.66,290.11
             48.56,290.11 49.33,291.11 50.28,294.91
             51.41,299.39 52.27,300.79 55.08,302.97
             56.53,304.10 58.02,305.55 58.48,306.14
             59.11,307.18 59.15,307.49 58.52,309.31
             57.71,311.66 58.20,313.06 60.11,314.01
             62.23,315.01 63.18,313.97 63.18,310.48
             63.18,308.81 64.86,304.28 65.90,303.01
             67.67,300.89 79.53,292.37 80.70,292.37
             81.16,292.37 82.06,293.05 82.74,293.87
             84.64,296.27 88.58,297.94 92.38,297.94
             96.05,297.94 98.22,296.99 100.85,294.32
             102.93,292.15 104.38,289.29 106.19,283.55
             107.69,278.97 108.73,277.25 110.45,276.71
             111.67,276.30 113.30,275.13 117.78,271.46
             121.31,268.56 125.70,265.66 126.56,265.66
             127.06,265.66 131.36,271.05 133.63,274.58
             135.17,276.89 135.57,278.07 135.85,280.42
             136.12,283.18 136.21,283.32 137.11,283.05
             142.54,281.33 145.40,278.16 146.67,272.36
             146.80,271.68 147.48,270.78 148.11,270.33
             152.14,267.52 154.54,264.08 156.04,258.96
             156.90,255.93 156.81,248.37 155.85,244.52
             155.22,242.12 155.13,241.08 155.49,240.40
             155.76,239.90 158.39,237.68 161.29,235.51
             170.48,228.68 174.87,223.52 177.00,216.91
             177.81,214.51 177.81,207.62 177.04,204.23
             176.77,203.01 177.09,202.28 179.31,198.80
             186.87,187.21 196.15,176.07 209.14,163.08
             225.30,146.96 242.55,132.61 257.94,122.47
             260.48,120.79 264.06,118.39 265.78,117.13
             269.67,114.36 269.85,114.27 275.10,111.65
             280.13,109.16 284.47,107.94 285.42,108.71
             285.83,109.07 288.82,109.25 294.48,109.29
             304.76,109.38 310.05,110.29 319.87,113.78
             324.18,115.27 333.37,119.71 336.90,121.93
             336.90,121.93 339.57,123.60 339.57,123.60
             339.57,123.60 335.90,119.84 335.90,119.84
             331.78,115.59 330.29,113.10 330.29,110.47
             330.29,107.30 333.46,104.13 336.63,104.09
             337.98,104.04 341.47,105.08 343.33,106.03
             344.10,106.44 345.18,106.76 345.73,106.76
             347.54,106.76 363.88,119.52 370.13,125.77
             375.69,131.34 390.73,152.08 390.41,153.70
             390.00,155.97 386.92,154.11 384.70,150.22
             383.21,147.59 382.08,146.33 379.82,144.79
             378.82,144.06 375.88,141.53 373.25,139.17
             366.73,133.15 363.11,130.75 360.03,130.44
             357.09,130.12 354.28,130.93 354.28,132.07
             354.28,132.47 355.87,135.46 357.77,138.63
             361.34,144.61 361.48,145.15 359.62,146.33
             358.86,146.78 357.99,146.10 350.30,139.08
             345.09,134.38 341.51,131.93 333.59,127.77
             328.52,125.09 324.49,123.64 317.16,121.88
             312.86,120.84 301.04,120.70 297.15,121.65
             297.15,121.65 294.57,122.29 294.57,122.29
             294.57,122.29 297.15,123.87 297.15,123.87
             300.23,125.77 302.13,127.27 306.97,131.66
             308.97,133.42 312.13,136.10 314.04,137.54
             318.20,140.76 321.05,143.88 325.62,150.22
             333.41,160.95 336.90,164.98 340.75,167.42
             343.69,169.37 344.01,169.23 343.64,166.43
             343.15,162.40 341.74,158.82 338.44,153.16
             336.67,150.18 335.13,147.37 335.00,146.91
             334.77,146.15 335.49,144.79 336.13,144.79
             337.26,144.79 340.74,148.36 343.19,152.03
             351.20,164.03 356.86,179.65 360.30,198.98
             360.30,198.98 361.30,204.55 361.30,204.55
             361.30,204.55 360.08,205.77 360.08,205.77
             358.49,207.31 358.08,206.99 355.41,201.97
             352.33,196.13 349.53,192.59 345.68,189.74
             338.48,184.35 330.47,175.21 323.99,164.98
             320.33,159.23 311.32,150.49 303.49,145.10
             298.69,141.85 287.37,135.46 287.05,135.82
             286.96,135.91 289.05,138.40 291.67,141.39
             298.91,149.68 302.36,154.25 304.57,158.68
             307.83,165.02 309.73,171.45 308.56,172.18
             308.24,172.40 306.93,171.41 305.21,169.78
             303.71,168.28 299.82,164.89 296.56,162.22
             293.35,159.59 289.77,156.65 288.64,155.74
             284.52,152.30 276.14,147.59 271.75,146.19
             266.54,144.56 264.64,144.02 264.64,144.20
             264.64,144.29 266.36,146.37 268.45,148.82
             274.92,156.47 279.67,163.80 282.30,170.14
             283.88,173.99 283.97,175.35 282.75,176.02
             281.21,176.84 276.91,173.90 268.90,166.52
             264.60,162.58 260.21,159.32 257.08,157.73
             256.27,157.33 255.59,157.06 255.59,157.19
             255.59,157.28 257.04,158.78 258.80,160.50
             272.61,173.81 283.11,195.13 287.69,219.03
             290.58,234.33 290.77,249.91 288.14,264.53
             287.87,266.03 287.46,268.38 287.23,269.74
             285.97,277.66 284.61,282.28 282.62,285.67
             281.03,288.44 280.26,289.02 279.31,288.25
             278.54,287.62 278.54,287.71 280.04,280.83
             280.85,277.16 281.08,274.58 281.17,267.25
             281.39,250.72 279.49,236.05 275.19,222.29
             273.56,216.95 272.70,215.55 273.92,220.21
             275.37,225.64 277.18,238.36 277.36,243.93
             277.73,255.75 277.59,260.00 276.69,261.32
             275.33,263.40 274.38,262.72 274.33,259.55
             274.29,258.06 274.06,256.02 273.79,255.02
             273.56,254.03 273.20,252.04 273.02,250.59
             272.84,249.14 272.61,248.01 272.52,248.14
             272.39,248.23 272.20,250.77 272.07,253.71
             271.93,256.70 271.61,260.23 271.39,261.59
             271.12,262.95 270.75,265.62 270.53,267.47
             269.99,271.96 269.80,272.64 266.54,282.05
             263.60,290.56 263.06,291.83 261.29,293.91
             260.34,295.05 260.07,295.18 259.48,294.68
             258.67,294.00 258.58,292.69 259.17,290.74
             259.62,289.20 260.34,285.72 261.02,281.28
             261.29,279.56 261.52,273.54 261.52,267.93
             261.52,258.60 261.25,254.93 260.12,248.69
             259.89,247.46 259.57,245.43 259.35,244.16
             259.07,242.39 258.94,243.93 258.67,250.95
             258.30,262.31 257.67,266.07 255.54,270.46
             254.82,271.96 254.14,272.73 253.51,272.82
             252.56,272.95 252.51,272.77 252.28,264.89
             251.88,250.86 249.34,239.54 244.27,229.17
             238.75,217.86 229.69,207.76 219.82,202.06
             219.46,201.83 220.50,203.14 222.22,204.95
             232.18,215.59 238.84,227.41 242.23,240.54
             242.64,242.03 243.23,243.71 243.59,244.20
             244.41,245.47 245.45,249.95 246.13,255.07
             248.57,273.86 243.46,294.14 231.41,313.56
             228.02,319.04 219.96,329.72 213.71,337.06
             204.66,347.65 191.98,359.83 176.54,372.78
             172.79,375.90 156.35,388.12 150.97,391.79
             142.55,397.54 132.77,404.01 131.59,404.65
             131.59,404.65 130.63,405.08 130.63,405.08
             127.92,403.87 125.24,402.61 122.69,401.29
             123.01,401.22 123.33,401.10 123.71,400.93
             124.39,400.62 126.43,399.35 128.15,398.08
             129.91,396.82 131.64,395.64 132.09,395.50
             132.90,395.19 139.29,390.84 142.36,388.49
             143.45,387.67 144.54,386.99 144.76,386.99
             144.99,386.99 147.57,385.18 150.56,382.92
             153.55,380.70 156.17,378.84 156.44,378.84
             156.67,378.84 156.90,378.62 156.90,378.39
             156.90,378.12 157.26,377.80 157.71,377.62
             158.71,377.26 161.97,374.77 162.47,374.00
             162.65,373.68 163.10,373.41 163.42,373.41
             163.78,373.41 164.14,373.09 164.32,372.73
             164.46,372.37 164.86,372.05 165.27,372.05
             165.63,372.05 165.95,371.87 165.95,371.64
             165.95,371.42 167.90,369.74 170.25,367.93
             172.61,366.12 174.55,364.45 174.55,364.26
             174.55,364.08 175.10,363.63 175.82,363.27
             176.50,362.91 177.63,362.05 178.40,361.32
             179.13,360.64 180.53,359.38 181.57,358.52
             185.37,355.35 194.65,346.79 197.73,343.62
             199.86,341.49 202.17,338.73 203.80,336.42
             204.93,334.88 206.11,333.43 206.42,333.25
             206.74,333.07 208.28,331.08 209.86,328.82
             211.40,326.60 213.44,323.93 214.35,322.93
             215.30,321.94 217.02,319.76 218.19,318.09
             219.33,316.41 220.64,314.78 221.09,314.47
             222.27,313.61 233.86,296.72 233.86,295.90
             233.86,295.63 234.67,293.78 235.62,291.74
             237.62,287.57 238.97,283.77 239.65,280.15
             239.92,278.79 240.42,276.53 240.69,275.17
             241.87,269.96 241.24,254.89 239.74,251.40
             239.52,250.91 239.02,249.50 238.61,248.23
             238.20,247.01 237.71,245.79 237.53,245.52
             237.30,245.29 236.98,244.57 236.80,243.93
             236.62,243.30 235.67,241.53 234.72,239.99
             233.72,238.45 232.95,236.87 232.95,236.51
             232.95,236.19 232.27,235.20 231.46,234.38
             230.60,233.52 228.83,231.30 227.52,229.45
             226.21,227.59 224.49,225.42 223.72,224.65
             222.95,223.88 221.73,222.56 220.96,221.75
             219.51,220.12 210.68,213.51 208.05,212.06
             207.19,211.56 203.53,209.71 199.90,207.90
             199.90,207.90 193.30,204.59 193.30,204.59
             193.30,204.59 189.13,204.50 189.13,204.50
             186.82,204.46 184.83,204.27 184.69,204.05
             184.56,203.82 183.92,203.64 183.29,203.64
             182.16,203.64 182.16,203.64 182.48,206.72
             182.84,210.61 182.07,218.13 180.94,221.11
             180.48,222.43 179.17,224.78 178.08,226.32
             176.95,227.91 175.91,229.81 175.73,230.53
             175.37,232.03 172.29,236.42 170.52,237.96
             169.89,238.55 167.63,239.81 165.50,240.81
             163.37,241.76 161.33,242.76 160.97,242.98
             159.97,243.53 159.89,245.11 160.75,247.24
             161.20,248.28 161.65,250.04 161.83,251.18
             162.01,252.62 162.38,253.35 163.14,253.71
             164.86,254.57 165.95,255.79 165.95,256.88
             165.95,257.47 166.18,258.06 166.40,258.19
             167.49,258.87 166.36,264.80 164.68,267.56
             164.14,268.42 163.23,269.56 162.60,270.14
             162.60,270.14 161.42,271.28 161.42,271.28
             161.42,271.28 159.97,270.19 159.97,270.19
             159.21,269.60 158.30,269.15 157.98,269.15
             157.12,269.15 153.05,272.50 151.83,274.26
             151.19,275.12 150.56,276.57 150.42,277.43
             149.88,280.92 148.97,282.50 145.99,285.31
             144.31,286.85 142.18,288.48 141.23,288.98
             140.24,289.48 138.83,290.34 138.06,290.92
             137.29,291.47 136.03,291.92 135.26,291.92
             134.03,291.92 133.63,291.60 132.45,289.79
             131.36,288.03 131.09,287.12 131.09,284.90
             131.09,282.37 130.95,281.96 128.56,278.48
             127.02,276.17 125.70,274.72 125.25,274.72
             124.80,274.72 123.53,275.40 122.44,276.21
             121.31,276.98 120.05,277.89 119.55,278.16
             119.05,278.43 117.64,279.20 116.38,279.92
             115.16,280.60 113.34,281.60 112.44,282.10
             110.72,283.00 110.72,283.05 110.72,285.81
             110.72,289.61 109.68,292.83 107.23,296.49
             105.02,299.93 102.21,302.24 98.50,303.69
             95.06,305.05 90.12,304.78 87.86,303.06
             87.04,302.42 86.18,301.88 85.96,301.88
             85.77,301.88 84.87,301.16 84.01,300.30
             82.24,298.48 80.84,298.30 79.16,299.62
             78.53,300.11 77.76,300.52 77.44,300.52
             77.13,300.52 76.63,300.79 76.36,301.16
             76.04,301.52 74.95,302.20 73.91,302.69
             70.70,304.23 69.25,305.86 68.93,308.45
             68.80,309.71 68.12,311.70 67.48,312.93
             66.85,314.15 66.35,315.69 66.35,316.37
             66.35,317.09 65.67,318.50 64.77,319.72
             63.18,321.71 63.05,321.80 60.74,321.80
             57.34,321.80 54.40,319.81 52.95,316.50
             52.14,314.65 51.96,313.83 52.32,313.20
             53.31,311.34 52.86,309.40 50.87,307.27
             49.42,305.68 48.65,304.19 47.57,300.93
             47.57,300.93 46.12,296.68 46.12,296.68
             46.12,296.68 43.85,296.40 43.85,296.40
             42.58,296.22 40.59,295.72 39.37,295.27
             39.37,295.27 37.24,294.46 37.24,294.46
             37.24,294.46 35.97,295.95 35.97,295.95
             34.66,297.53 32.76,298.71 31.54,298.71
             29.82,298.71 27.06,296.86 25.74,294.91
             23.75,291.92 23.12,289.25 23.75,286.76
             24.02,285.63 24.25,281.78 24.25,278.16
             24.25,278.16 24.25,271.64 24.25,271.64
             24.25,271.64 21.03,269.51 21.03,269.51
             19.27,268.33 16.82,266.39 15.60,265.21
             13.11,262.81 10.22,258.96 10.22,258.06
             10.22,257.74 9.90,257.02 9.54,256.43
             8.77,255.25 8.09,252.35 7.50,247.83
             7.18,245.56 6.77,244.39 6.00,243.53
             3.56,240.81 3.29,237.91 5.01,232.12
             6.59,226.86 6.91,223.51 5.96,222.52
             5.55,222.11 4.92,221.89 4.60,222.02
             4.28,222.16 3.42,221.57 2.75,220.75
             2.75,220.75 2.16,220.07 2.16,220.07
             2.01,217.31 1.92,214.54 1.87,211.75
             1.90,211.22 1.92,210.69 1.95,210.26
             1.95,210.26 2.56,209.43 2.56,209.43
             3.11,208.66 3.92,208.17 4.56,208.17
             5.15,208.17 5.78,208.39 5.92,208.62
             6.46,209.53 7.36,209.03 8.72,207.08
             10.26,204.95 14.24,202.28 15.96,202.28
             16.51,202.28 17.10,202.10 17.23,201.83
             17.37,201.60 18.82,201.38 20.45,201.38
             23.25,201.38 23.34,201.33 23.34,200.25
             23.34,199.61 23.12,198.25 22.80,197.17
             22.44,195.67 22.39,194.40 22.80,192.14
             23.25,189.33 23.62,188.34 26.42,182.41
             26.42,182.41 27.60,179.96 27.60,179.96
             27.60,179.96 26.83,176.98 26.83,176.98
             25.52,171.86 26.02,168.28 28.46,165.70
             29.68,164.43 30.14,164.21 31.40,164.44
             32.72,164.62 33.17,164.34 36.07,161.49
             38.74,158.87 39.51,158.37 40.77,158.37
             41.95,158.37 42.49,158.69 43.22,159.68
             43.76,160.41 44.17,161.17 44.17,161.45
             44.17,162.35 46.21,162.40 47.75,161.49
             48.61,160.99 50.19,160.27 51.28,159.91
             53.13,159.27 53.31,159.27 54.63,160.22
             55.40,160.77 56.21,161.67 56.44,162.31
             56.76,163.17 57.12,163.39 58.11,163.26
             59.24,163.12 59.47,162.76 60.92,158.55
             63.05,152.35 66.53,147.32 70.83,144.20
             71.56,143.66 73.41,142.25 74.91,141.07
             76.40,139.85 77.81,138.90 78.08,138.90
             78.35,138.90 78.58,138.67 78.58,138.45
             78.58,138.18 78.94,137.86 79.39,137.68
             80.34,137.32 83.28,135.10 85.19,133.24
             88.31,130.26 90.17,128.58 91.48,127.77
             92.25,127.31 95.24,125.14 98.18,122.92
             101.08,120.75 103.84,118.80 104.24,118.67
             104.70,118.48 106.78,117.13 108.91,115.59
             112.30,113.14 117.10,110.11 120.59,108.12
             121.27,107.75 121.99,107.17 122.17,106.89
             122.35,106.58 122.76,106.31 123.03,106.31
             123.26,106.31 126.52,104.04 130.23,101.33
             133.94,98.56 137.57,96.07 138.24,95.80
             138.92,95.49 140.01,94.90 140.69,94.44
             141.82,93.67 149.06,89.83 155.99,86.39
             157.62,85.57 159.25,84.76 159.61,84.53
             163.42,82.49 177.95,75.52 178.36,75.52
             178.58,75.52 180.08,74.93 181.66,74.16
             183.20,73.44 184.69,72.80 184.92,72.80
             185.15,72.80 186.69,72.22 188.27,71.45
             189.90,70.72 191.53,70.09 191.94,70.09
             192.30,70.09 192.71,69.91 192.84,69.68
             192.98,69.45 193.66,69.14 194.34,68.96
             195.06,68.82 197.55,67.73 199.90,66.60
             205.47,63.93 210.32,61.94 211.31,61.94
             211.72,61.94 212.17,61.76 212.36,61.53
             212.49,61.31 213.21,60.99 213.98,60.81
             214.75,60.63 215.89,60.22 216.56,59.86
             217.24,59.50 218.10,59.22 218.51,59.22
             218.87,59.22 219.37,59.04 219.64,58.82
             219.87,58.59 220.96,58.18 222.09,57.96
             223.22,57.68 225.26,57.14 226.61,56.73
             227.97,56.33 230.15,55.78 231.37,55.56
             232.64,55.33 234.04,54.92 234.54,54.70
             235.04,54.47 236.57,54.15 237.93,53.97
             239.29,53.84 240.65,53.52 240.88,53.34
             241.15,53.16 242.73,52.88 244.45,52.75
             246.13,52.57 247.76,52.25 248.07,52.02
             248.35,51.80 249.61,51.62 250.84,51.62
             255.00,51.53 260.57,50.98 260.84,50.58
             261.02,50.28 265.41,50.16 269.83,50.17
             269.83,50.17 269.83,50.17 269.83,50.17 Z
           M 367.05,104.77
           C 373.21,107.66 379.09,112.15 386.38,119.48
             391.72,124.87 402.54,138.49 404.31,142.07
             404.76,142.93 405.58,144.33 406.21,145.15
             406.84,145.96 407.97,147.73 408.74,149.09
             412.07,154.67 413.04,156.29 413.42,156.41
             417.58,171.75 420.05,187.79 420.60,204.32
             420.47,203.72 420.28,203.64 419.97,203.64
             418.70,203.64 418.34,202.92 417.21,198.44
             416.17,194.18 409.01,172.49 406.98,167.42
             404.26,160.50 395.48,143.61 392.99,140.49
             391.63,138.77 389.91,136.41 389.23,135.37
             387.38,132.34 384.84,129.03 382.80,126.86
             381.81,125.77 379.77,123.28 378.28,121.34
             375.74,117.94 372.93,115.31 367.36,111.01
             365.96,109.93 364.42,108.21 363.79,107.03
             362.75,105.08 362.75,104.90 363.47,104.18
             363.74,103.91 363.94,103.74 364.22,103.71
             364.68,103.66 365.38,103.97 367.05,104.77 Z
           M 227.02,159.24
           C 226.50,159.22 226.04,159.27 225.71,159.41
             224.67,159.82 224.85,159.91 227.47,160.45
             229.10,160.81 230.51,161.18 230.60,161.31
             230.73,161.45 231.14,161.54 231.55,161.54
             232.18,161.54 232.18,161.45 231.55,160.86
             230.70,159.98 228.58,159.30 227.02,159.24
             227.02,159.24 227.02,159.24 227.02,159.24 Z
           M 232.86,161.67
           C 232.55,161.81 232.77,161.90 233.41,161.90
             234.04,161.90 234.27,161.81 233.99,161.67
             233.84,161.63 233.62,161.61 233.41,161.61
             233.20,161.61 233.00,161.63 232.86,161.67 Z
           M 319.83,165.61
           C 321.73,165.61 324.90,170.41 330.47,181.68
             333.59,188.02 336.49,194.86 338.62,200.92
             342.06,210.61 345.09,220.26 345.63,223.11
             345.95,224.74 346.36,227.09 346.59,228.31
             347.22,231.66 347.85,237.82 348.44,245.97
             348.94,252.71 348.94,253.62 347.99,259.10
             347.49,262.36 347.04,265.62 346.99,266.34
             346.99,268.38 345.91,272.14 345.27,272.36
             344.14,272.72 343.46,271.46 343.46,269.15
             343.51,262.31 342.19,253.67 340.07,247.10
             336.31,235.38 330.24,222.61 325.62,216.77
             325.62,216.77 324.72,215.64 324.72,215.64
             324.72,215.64 325.04,217.22 325.04,217.22
             327.48,229.40 328.02,235.10 328.21,249.59
             328.52,273.72 327.07,283.64 320.51,303.01
             318.34,309.44 316.80,312.25 314.58,313.92
             310.82,316.78 306.70,316.37 303.12,312.79
             301.95,311.61 300.72,309.89 300.36,308.99
             300.36,308.99 299.78,307.36 299.78,307.36
             299.78,307.36 296.65,312.88 296.65,312.88
             291.17,322.52 288.14,328.91 288.77,329.41
             292.08,332.03 296.33,332.39 300.91,330.45
             303.53,329.36 308.11,326.28 310.41,324.06
             310.78,323.70 311.73,322.84 312.45,322.21
             314.22,320.67 316.53,317.91 317.75,315.82
             321.28,309.94 323.68,306.32 325.22,304.60
             326.71,302.92 327.12,302.70 328.21,302.97
             330.11,303.47 331.15,306.23 331.19,310.93
             331.19,314.37 331.65,316.50 332.28,315.91
             332.82,315.33 337.21,306.09 339.07,301.61
             340.97,296.90 344.41,287.17 345.23,284.00
             346.54,279.11 346.95,277.34 347.45,274.94
             347.76,273.45 348.17,271.41 348.40,270.42
             348.80,268.47 349.44,264.39 350.21,258.65
             350.80,254.07 350.80,237.05 350.21,233.11
             348.22,220.12 347.45,216.23 345.41,208.80
             343.78,202.92 342.19,198.25 341.56,197.53
             340.97,196.94 341.06,195.17 341.65,194.77
             341.92,194.63 342.96,195.26 343.96,196.21
             349.39,201.51 353.15,209.53 356.45,222.88
             356.91,224.56 357.27,226.73 358.36,233.75
             358.85,236.92 358.58,254.93 357.90,262.72
             357.68,265.71 357.27,270.82 357.04,274.04
             356.59,280.01 355.91,285.31 355.37,286.67
             355.23,287.08 355.19,287.39 355.32,287.39
             356.00,287.39 359.71,274.22 361.30,266.12
             361.93,262.99 362.61,259.55 362.84,258.42
             364.02,252.90 366.50,235.47 366.87,230.13
             367.32,223.38 367.18,210.34 366.55,205.45
             365.87,200.16 364.97,195.17 363.70,189.88
             363.70,189.88 362.70,185.85 362.70,185.85
             362.70,185.85 363.74,185.03 363.74,185.03
             365.28,183.81 366.46,183.99 368.05,185.67
             371.26,189.11 377.55,203.28 379.23,210.88
             379.50,212.02 379.86,213.74 380.13,214.73
             381.49,220.44 382.17,225.37 382.80,233.52
             383.39,240.67 383.12,257.38 382.44,259.55
             382.22,260.32 381.81,261.95 381.54,263.17
             379.32,273.54 377.60,279.38 374.11,288.53
             369.81,299.75 368.13,303.24 367.05,303.24
             365.74,303.24 365.10,302.15 365.33,300.48
             365.87,296.36 367.64,288.44 368.72,285.36
             369.54,283.05 372.16,266.21 371.76,265.80
             371.67,265.71 371.26,267.02 370.85,268.70
             368.09,280.11 362.39,295.59 356.37,308.35
             355.23,310.75 354.28,313.06 354.28,313.47
             354.28,314.74 345.91,328.45 342.83,332.21
             338.57,337.37 332.78,340.18 328.57,339.00
             326.71,338.51 326.49,338.28 324.99,335.16
             324.00,333.03 323.22,330.54 322.95,328.41
             322.95,328.41 322.45,325.06 322.45,325.06
             322.45,325.06 320.19,328.09 320.19,328.09
             313.13,337.37 299.14,351.36 294.84,353.44
             291.90,354.85 286.96,355.84 284.52,355.53
             280.40,354.94 277.36,357.29 270.03,366.66
             267.59,369.83 264.64,373.18 263.47,374.18
             262.33,375.13 259.89,377.26 258.08,378.93
             254.23,382.46 251.38,384.05 247.35,384.77
             245.04,385.18 243.91,385.18 242.23,384.77
             239.79,384.14 241.10,383.37 230.01,391.97
             209.10,408.18 197.23,414.74 183.43,417.55
             179.80,418.28 178.63,418.05 178.63,416.60
             178.63,416.28 185.01,411.80 192.80,406.64
             209.41,395.59 216.47,390.66 221.41,386.54
             223.40,384.91 225.94,382.87 227.07,382.01
             230.24,379.57 238.84,372.37 238.84,372.19
             238.84,372.05 238.07,372.60 237.16,373.32
             236.21,374.04 233.63,375.94 231.37,377.48
             229.15,379.02 226.39,381.11 225.26,382.10
             221.63,385.23 215.66,389.44 209.64,393.10
             206.42,395.05 203.44,396.91 203.07,397.18
             201.44,398.49 190.08,404.78 183.61,407.95
             174.37,412.44 167.76,415.51 167.31,415.51
             167.13,415.51 166.77,415.78 166.45,416.10
             166.41,416.14 166.40,416.18 166.16,416.21
             160.90,415.08 155.71,413.76 150.79,412.24
             151.09,412.13 151.40,411.99 151.69,411.80
             152.46,411.30 153.95,410.40 154.99,409.72
             162.78,404.92 173.47,397.40 172.52,397.40
             172.33,397.40 171.16,398.08 169.89,398.94
             165.91,401.57 159.66,405.24 153.64,408.50
             151.26,409.78 149.30,410.97 148.35,411.56
             144.40,410.25 140.50,408.82 136.81,407.28
             136.81,407.28 143.63,402.75 143.63,402.75
             153.50,396.18 156.04,394.55 157.67,393.83
             158.26,393.56 159.57,392.56 160.61,391.61
             161.69,390.66 164.09,388.94 165.95,387.81
             176.09,381.69 190.17,370.78 202.21,359.69
             215.03,347.92 227.79,332.17 236.35,317.59
             239.25,312.61 244.95,301.20 246.49,297.26
             247.71,294.18 248.48,293.37 249.48,294.18
             250.02,294.64 250.11,295.45 249.89,297.99
             248.89,311.30 248.12,315.82 245.95,321.94
             244.50,325.87 244.41,326.33 245.18,326.33
             246.53,326.33 248.57,323.52 251.51,317.45
             254.46,311.48 257.72,307.31 259.48,307.31
             260.57,307.31 262.92,308.76 266.00,311.30
             267.27,312.34 268.72,313.20 269.22,313.20
             270.48,313.20 274.78,308.63 277.86,303.92
             283.20,295.86 288.05,283.86 290.90,271.55
             291.99,266.89 292.80,263.04 293.57,258.74
             293.80,257.33 294.16,255.98 294.30,255.70
             294.43,255.48 294.66,252.53 294.80,249.09
             294.89,245.70 295.20,242.53 295.47,242.03
             296.20,240.67 297.37,241.26 298.51,243.57
             299.50,245.56 299.59,246.24 299.59,253.76
             299.59,258.19 299.37,264.17 299.10,267.02
             298.24,276.17 297.01,285.81 296.52,287.08
             296.38,287.48 296.33,287.85 296.47,287.85
             296.79,287.85 298.82,281.42 299.50,278.34
             299.82,276.98 300.23,275.40 300.45,274.81
             300.68,274.22 300.86,273.13 300.86,272.32
             300.86,271.50 301.04,270.14 301.27,269.28
             302.31,265.30 302.81,249.50 302.08,242.57
             301.22,234.11 299.32,224.37 296.38,213.37
             294.97,208.17 289.68,194.59 288.59,193.46
             288.37,193.23 288.18,192.55 288.18,191.96
             288.18,191.37 287.82,189.88 287.42,188.70
             286.78,186.93 286.74,186.30 287.19,185.35
             287.46,184.72 288.00,184.17 288.37,184.17
             289.41,184.17 294.98,189.97 297.38,193.59
             301.09,199.11 304.39,206.77 307.15,216.09
             307.38,216.86 307.83,218.58 308.10,219.94
             308.42,221.30 309.01,223.56 309.46,224.92
             309.92,226.28 310.41,228.45 310.55,229.67
             310.69,230.94 311.05,233.25 311.32,234.88
             313.22,246.20 313.22,269.10 311.27,284.81
             310.96,287.21 310.91,289.30 311.14,289.97
             311.14,289.97 311.55,291.15 311.55,291.15
             311.55,291.15 312.50,289.84 312.50,289.84
             313.90,287.85 316.48,282.55 317.34,279.92
             318.52,276.17 319.56,270.60 320.78,261.36
             321.37,256.75 321.37,239.00 320.78,233.97
             319.56,223.88 318.79,218.67 318.02,215.09
             316.43,207.67 315.98,205.81 314.08,199.34
             311.91,191.96 311.82,190.56 313.22,189.24
             315.44,187.16 317.61,188.56 324.18,196.26
             324.18,196.26 327.35,199.93 327.35,199.93
             327.35,199.93 327.48,198.12 327.48,198.12
             327.57,197.12 327.39,195.67 327.16,194.90
             326.89,194.18 326.67,192.82 326.67,191.96
             326.67,191.10 326.12,188.93 325.49,187.16
             324.86,185.40 324.18,183.13 323.95,182.14
             323.72,181.14 322.68,178.11 321.55,175.35
             318.20,167.15 317.93,165.61 319.83,165.61
             319.83,165.61 319.83,165.61 319.83,165.61 Z
           M 403.75,173.85
           C 404.62,173.76 405.32,174.76 407.34,178.60
             409.51,182.82 411.55,188.02 412.28,191.42
             414.04,199.52 414.45,201.92 415.58,212.47
             417.57,230.67 416.53,248.91 412.64,264.08
             411.96,266.84 411.05,269.96 410.65,271.10
             410.24,272.23 409.69,274.26 409.42,275.62
             408.61,280.19 408.25,281.73 407.52,284.41
             407.46,284.64 407.43,284.82 407.37,285.21
             397.63,311.19 382.86,334.72 364.26,354.62
             364.91,353.67 365.60,352.64 366.41,351.36
             378.28,332.85 383.98,320.26 386.47,307.09
             387.29,302.51 387.60,299.66 387.19,299.93
             387.01,300.07 385.61,301.70 384.12,303.55
             380.72,307.81 377.01,314.10 371.03,325.65
             365.51,336.33 362.66,341.31 359.81,345.34
             358.67,346.97 356.32,350.41 354.60,353.04
             347.94,363.04 345.18,366.26 329.34,382.60
             326.21,385.84 324.17,387.95 323.44,388.73
             317.34,392.58 311.03,396.13 304.54,399.30
             304.47,399.21 304.37,399.11 304.21,398.99
             303.71,398.63 303.22,398.31 302.99,398.31
             302.73,398.31 299.15,400.95 297.08,402.69
             274.72,412.81 250.27,419.12 224.56,420.79
             224.56,420.79 229.65,418.18 229.65,418.18
             243.55,411.03 251.38,404.56 257.85,394.92
             260.34,391.20 264.51,386.81 266.50,385.72
             271.03,383.32 274.15,385.63 274.92,391.97
             275.42,396.23 273.15,402.52 269.31,407.55
             268.36,408.77 267.40,410.04 267.13,410.35
             266.91,410.67 266.86,411.08 267.00,411.21
             267.68,411.89 270.75,409.63 283.70,398.99
             287.05,396.23 290.90,393.15 292.26,392.11
             293.62,391.11 295.97,388.98 297.47,387.40
             301.40,383.23 304.44,380.70 306.16,380.25
             308.06,379.70 310.37,380.34 311.68,381.74
             311.68,381.74 312.72,382.83 312.72,382.83
             312.72,382.83 315.12,381.20 315.12,381.20
             320.10,377.71 331.28,367.93 333.37,365.12
             333.73,364.67 335.22,362.91 336.72,361.28
             348.94,347.52 362.97,324.56 375.33,298.03
             379.41,289.25 380.86,285.76 384.70,275.17
             386.51,270.19 389.82,263.26 391.45,260.95
             394.71,256.43 398.56,254.66 401.77,256.29
             401.77,256.29 403.18,256.97 403.18,256.97
             403.18,256.97 403.58,255.34 403.58,255.34
             405.71,247.24 407.02,239.95 408.16,229.40
             408.79,223.88 408.79,199.25 408.20,196.99
             407.93,196.03 407.20,193.14 406.53,190.51
             405.89,187.89 404.85,183.81 404.22,181.46
             402.59,175.44 402.45,174.30 403.36,173.94
             403.49,173.89 403.62,173.86 403.75,173.85
             403.75,173.85 403.75,173.85 403.75,173.85 Z
           M 420.82,210.56
           C 420.82,211.15 420.83,211.74 420.83,212.34
             420.83,212.42 420.83,212.51 420.83,212.59
             420.83,211.83 420.82,211.20 420.82,210.57
             420.82,210.57 420.82,210.56 420.82,210.56 Z
           M 4.65,212.87
           C 3.97,212.78 2.99,214.71 3.29,215.77
             3.61,216.99 4.15,217.04 4.78,215.91
             5.37,214.78 5.37,213.28 4.78,212.92
             4.74,212.90 4.70,212.88 4.65,212.87
             4.65,212.87 4.65,212.87 4.65,212.87 Z
           M 162.79,259.00
           C 161.53,259.13 159.70,262.90 160.29,264.76
             160.74,266.12 162.24,265.89 162.60,264.44
             162.74,263.72 163.05,262.40 163.33,261.41
             163.60,260.23 163.60,259.51 163.28,259.19
             163.13,259.04 162.97,258.99 162.79,259.00
             162.79,259.00 162.79,259.00 162.79,259.00 Z
           M 376.36,83.16
           C 404.17,118.63 420.78,163.30 420.87,211.84
             420.86,327.50 327.07,421.25 211.37,421.25
             211.37,421.25 211.37,421.25 211.37,421.25
             179.84,421.17 149.96,414.12 123.29,401.58
             123.29,401.58 130.06,397.03 130.06,397.03
             154.94,408.00 182.45,414.11 211.37,414.15
             323.15,414.15 413.76,323.57 413.76,211.84
             413.76,211.83 413.76,211.83 413.76,211.83
             413.69,158.77 393.19,110.49 359.69,74.44
             359.69,74.44 376.36,83.16 376.36,83.16 Z
           M 20.54,180.82
           C 22.39,178.24 22.53,175.57 20.85,174.49
             19.18,173.40 18.14,173.58 16.55,175.44
             15.29,176.84 15.15,177.34 15.33,178.88
             15.47,179.83 16.06,181.14 16.60,181.73
             18.05,183.27 18.91,183.09 20.54,180.82 Z
           M 18.82,178.06
           C 18.59,178.20 18.36,178.15 18.36,177.88
             18.36,177.65 18.59,177.29 18.82,177.16
             19.09,177.02 19.27,177.07 19.27,177.34
             19.27,177.56 19.09,177.93 18.82,178.06 Z
           M 128.10,307.22
           C 130.59,304.82 131.41,302.24 130.59,299.71
             129.96,297.81 128.10,296.00 126.84,296.00
             125.21,296.00 123.08,298.08 122.31,300.48
             121.18,304.01 121.36,306.23 122.90,307.81
             124.71,309.58 125.75,309.49 128.10,307.22 Z
           M 124.30,304.55
           C 124.30,303.83 126.20,300.52 126.65,300.52
             127.38,300.52 127.02,302.70 126.07,303.87
             125.12,305.09 124.30,305.41 124.30,304.55 Z
           M 229.65,90.73
           C 230.33,90.37 234.18,88.47 238.16,86.57
             242.14,84.62 246.04,82.63 246.76,82.09
             248.57,80.82 253.82,78.60 259.66,76.70
             281.58,69.45 300.82,68.73 317.84,74.43
             319.83,75.11 321.91,75.93 322.46,76.29
             323.81,77.20 325.49,76.88 325.67,75.70
             325.81,74.62 323.41,72.62 318.88,70.18
             316.57,68.87 304.71,64.66 303.44,64.66
             303.12,64.66 300.63,63.93 297.92,63.03
             297.92,63.03 292.94,61.35 292.94,61.35
             292.94,61.35 282.98,61.31 282.98,61.31
             277.50,61.31 270.66,61.40 267.81,61.58
             264.96,61.76 260.80,62.03 258.58,62.17
             256.36,62.30 254.37,62.53 254.19,62.66
             253.96,62.80 252.42,62.98 250.75,63.12
             241.87,63.75 225.12,68.05 215.75,72.13
             211.58,73.89 203.71,77.97 202.62,78.87
             202.26,79.19 200.67,79.87 199.09,80.32
             194.61,81.68 191.71,85.12 193.70,86.75
             194.29,87.25 198.09,86.39 202.17,84.80
             203.30,84.39 205.52,83.85 207.15,83.62
             208.78,83.40 212.72,82.40 215.93,81.36
             220.14,80.05 222.99,79.41 226.34,79.14
             228.83,78.92 231.60,78.60 232.41,78.37
             234.04,77.97 237.93,78.15 237.93,78.64
             237.89,78.78 236.12,80.23 233.95,81.86
             227.66,86.61 226.62,87.65 226.62,89.28
             226.62,90.10 226.75,90.91 226.93,91.05
             227.38,91.55 228.24,91.41 229.65,90.73 Z
           M 177.99,173.31
           C 178.36,173.31 197.87,158.69 207.83,150.90
             222.18,139.72 234.90,130.35 243.50,124.55
             248.39,121.25 252.51,118.53 252.60,118.53
             252.74,118.53 254.00,117.76 255.45,116.81
             260.21,113.69 273.02,106.89 280.44,103.63
             282.75,102.59 287.69,101.64 293.84,100.96
             296.47,100.65 296.56,100.60 296.56,99.29
             296.56,98.25 296.29,97.89 295.43,97.66
             293.71,97.16 286.06,97.21 282.75,97.70
             281.12,97.98 279.09,98.25 278.13,98.38
             274.83,98.75 266.18,101.28 261.29,103.27
             258.80,104.31 247.67,109.88 245.40,111.24
             244.18,112.01 242.73,112.83 242.23,113.10
             240.42,114.09 239.34,114.77 232.23,119.57
             228.29,122.24 222.09,126.63 218.47,129.26
             211.36,134.42 211.36,134.28 218.24,127.58
             224.03,121.97 225.39,120.79 230.92,116.67
             243.09,107.57 254.37,101.37 270.35,94.94
             276.10,92.63 289.68,88.02 292.08,87.52
             292.89,87.38 293.89,86.84 294.34,86.34
             295.07,85.53 295.07,85.39 294.39,84.71
             293.75,84.03 293.16,84.03 289.00,84.53
             286.42,84.85 283.61,85.25 282.71,85.48
             281.85,85.75 279.90,86.11 278.41,86.34
             275.51,86.75 265.41,90.14 260.61,92.32
             249.12,97.52 235.40,105.08 225.48,111.74
             218.06,116.67 206.24,125.91 206.24,126.72
             206.24,126.90 204.16,128.94 201.63,131.25
             195.69,136.64 192.84,139.90 191.48,142.75
             190.08,145.69 190.04,149.18 191.35,151.89
             191.35,151.89 192.30,153.84 192.30,153.84
             192.30,153.84 191.17,155.34 191.17,155.34
             190.58,156.10 187.32,159.59 184.01,163.08
             178.22,169.10 176.86,171.09 177.45,172.67
             177.59,173.04 177.86,173.31 177.99,173.31 Z
           M 138.83,213.15
           C 139.06,213.15 140.19,212.42 141.37,211.52
             143.31,210.02 143.68,209.93 145.35,210.25
             150.88,211.34 152.37,210.52 154.63,205.09
             156.13,201.51 159.57,197.35 166.49,190.65
             169.39,187.84 173.19,181.77 173.19,179.96
             173.19,178.88 171.93,178.11 170.93,178.56
             170.25,178.88 159.48,188.52 155.86,192.01
             155.40,192.46 154.90,192.73 154.77,192.59
             154.36,192.23 155.54,185.94 156.72,182.18
             158.16,177.56 164.23,165.79 167.85,160.54
             168.94,158.96 168.94,157.46 167.81,157.46
             166.63,157.46 161.60,161.76 158.48,165.48
             157.08,167.11 154.50,170.50 152.82,173.04
             151.10,175.57 148.11,179.87 146.26,182.59
             140.64,190.69 137.75,197.12 136.34,204.59
             135.35,210.02 135.39,210.61 137.02,211.97
             137.79,212.60 138.61,213.15 138.83,213.15 Z
           M 63.46,230.31
           C 64.32,230.40 64.99,229.26 65.67,226.55
             66.22,224.56 68.39,220.89 75.77,209.84
             90.84,187.25 94.65,182.18 103.25,173.31
             107.19,169.23 112.62,162.85 117.51,156.56
             126.16,145.42 127.83,143.47 135.39,135.73
             146.48,124.41 157.39,114.05 162.06,110.38
             170.48,103.82 173.92,101.14 176.63,99.29
             181.75,95.71 184.33,90.91 181.34,90.55
             178.49,90.23 159.61,103.09 145.26,115.13
             139.33,120.11 116.88,139.35 115.47,140.67
             115.25,140.89 113.48,142.48 111.62,144.15
             102.39,152.53 91.25,164.16 84.51,172.40
             79.80,178.15 80.39,176.98 87.31,167.02
             100.17,148.41 112.62,134.92 128.74,122.20
             132.22,119.39 132.90,118.67 132.90,117.58
             132.90,115.95 131.54,115.18 129.46,115.54
             127.92,115.86 118.69,121.83 113.44,125.91
             104.65,132.79 91.52,144.83 79.35,157.19
             67.67,169.01 62.32,175.03 54.94,184.63
             51.28,189.43 50.37,190.96 49.19,194.36
             48.42,196.62 47.66,199.57 47.52,200.92
             47.29,203.05 47.38,203.60 48.24,204.68
             49.06,205.68 49.56,205.90 51.32,205.90
             54.67,205.90 54.85,206.22 53.77,209.48
             53.22,211.02 52.32,212.88 51.68,213.60
             50.37,215.23 49.38,220.30 49.83,223.47
             49.96,224.69 50.60,226.23 51.19,226.96
             52.23,228.31 52.23,228.31 54.81,227.77
             57.34,227.23 57.43,227.23 60.20,228.72
             61.69,229.58 63.18,230.26 63.46,230.31 Z
           M 112.76,241.80
           C 113.25,241.67 114.97,241.49 116.60,241.35
             118.96,241.17 119.82,240.90 120.77,239.95
             122.17,238.68 123.58,235.33 124.07,232.16
             124.53,229.13 125.98,224.38 126.84,223.20
             127.20,222.61 128.33,221.66 129.33,221.02
             130.73,220.16 131.09,219.67 131.09,218.63
             131.09,216.54 129.19,215.32 126.47,215.59
             125.30,215.68 124.30,215.64 124.30,215.50
             124.30,214.37 126.38,208.30 128.56,203.23
             129.96,199.93 131.09,197.08 131.09,196.85
             131.09,196.67 131.41,196.26 131.77,195.94
             132.13,195.63 132.68,194.54 132.95,193.50
             133.63,190.83 135.48,187.75 140.69,180.42
             149.47,168.15 158.53,156.78 167.72,146.60
             178.85,134.19 199.86,114.14 205.70,110.24
             209.59,107.66 212.17,103.23 210.72,101.51
             210.09,100.74 208.82,101.01 206.92,102.46
             206.20,103.00 201.40,106.26 196.37,109.66
             178.22,121.88 173.60,125.73 157.98,141.62
             146.89,152.94 141.55,158.82 134.80,167.33
             132.13,170.68 129.05,174.49 127.92,175.80
             125.61,178.47 120.14,185.53 116.60,190.47
             115.25,192.32 113.66,194.36 113.07,194.99
             112.44,195.63 110.67,198.16 109.09,200.56
             107.50,202.96 105.74,205.27 105.11,205.68
             104.52,206.09 102.80,206.58 101.35,206.81
             99.90,207.04 98.27,207.35 97.73,207.53
             96.19,207.99 96.41,206.72 98.72,201.60
             99.04,200.88 99.81,198.80 100.44,196.99
             101.03,195.17 102.84,191.51 104.52,188.84
             106.15,186.17 107.82,183.09 108.27,182.00
             108.95,180.23 108.95,179.96 108.36,179.33
             107.82,178.83 107.46,178.79 106.78,179.15
             105.15,180.01 96.64,191.01 90.48,200.25
             82.02,212.97 78.49,220.03 75.68,229.99
             74.86,232.84 74.73,238.27 75.41,240.13
             75.86,241.26 76.00,241.31 78.03,241.04
             84.55,240.17 84.64,240.13 84.73,234.61
             84.78,230.44 85.82,227.59 88.76,223.79
             89.76,222.56 91.25,220.30 92.16,218.81
             94.15,215.59 95.60,214.73 98.90,214.78
             103.70,214.91 104.88,217.13 104.88,225.82
             104.88,228.95 105.06,232.89 105.29,234.61
             105.60,237.32 105.87,237.91 107.32,239.41
             108.23,240.36 109.63,241.31 110.40,241.58
             111.22,241.85 112.26,241.94 112.76,241.80 Z
           M 146.98,245.70
           C 149.25,244.07 150.69,241.08 150.92,237.32
             151.10,234.11 151.10,233.97 149.74,232.66
             147.62,230.49 145.53,230.67 143.04,233.29
             139.56,236.92 139.20,242.44 142.27,245.83
             143.27,246.92 145.35,246.88 146.98,245.70 Z
           M 144.45,241.26
           C 144.08,240.08 145.49,236.69 145.99,237.55
             146.21,237.87 146.12,238.91 145.85,239.86
             145.22,242.08 144.85,242.44 144.45,241.26 Z" />
</svg>
